<!-- SPDX-FileCopyrightText: 2021-2026 Contributors to vdu_controls <https://github.com/digitaltrails/vdu_controls> -->
<!-- SPDX-License-Identifier: LGPL-3.0 -->
<!--  -->

<svg width="24px" height="24px" viewBox="0 0 24 24" fill="none" xmlns="http://www.w3.org/2000/svg">
    <style type="text/css" id="current-color-scheme"> .ColorScheme-Text { color:#232629; } </style>
    <g class="ColorScheme-Text" stroke="currentColor" stroke-linecap="round" stroke-width="1.25">
        <path d="M6.5,11 a1,1 0 0,1 7,0 " /> <path d="M6.5,11 a1,1 0 0,0 0,6.5 " /> 
        <path d="M14,11 a1,1 0 0,1 0,6.5 " /> <path d="M7,17.5 l6.5,0" stroke-linecap="square"/> 
        <path d="M12.5,8 a1,1 0 0,1 5,4 "/> <path d="M15,10 m 0,-6 l 0,1.25"/>
        <path d="M15,10 m 3.5,-3.5 l 1,-1"/> <path d="M15,10 m -3.5,-3.5 l -1,-1"/>
        <path d="M15,10 m 3.5,3.5 l 1,1"/> <path d="M15,10 m 5,0 l 1.25,0"/>
    </g>
</svg>
