<?xml version="1.0" encoding="UTF-8"?>

<svg viewBox="0 0 24 24" width="24" height="24" fill="none" xmlns="http://www.w3.org/2000/svg">
    <style type="text/css" id="current-color-scheme"> .ColorScheme-Text { color:#232629; } </style>
    <g class="ColorScheme-Text" stroke="currentColor" stroke-linejoin="round" stroke-linecap="round" stroke-width="2" transform="">
        <path fill="None" d="M 9 20 L 1 20 1 5 20 5 20 8"/>
            <path class="ColorScheme-Text" stroke-width="0.3" transform="translate(10.5, 3) scale(1.2)" d="m 10 7c-3.9941 0-5.9941 2-6.9941 3l-2 1 1 1 0.00391 1.5 1.5 1.5h1.4961l1 1 1-2c1-1 3-3 2.9941-7zm-0.99609 1c-2e-3 2-1.998 6-4.998 6l-1-1c1e-7 -3 3.9992-5 5.998-5zm-2.248 1.5c-0.41421 0-0.75 0.33579-0.75 0.75s0.33579 0.75 0.75 0.75 0.75-0.33579 0.75-0.75-0.33579-0.75-0.75-0.75zm-5.5499 4.5c-0.2 2-0.2 2 1.8 1.8z" color="currentColor" fill="currentColor"/>

    </g>
</svg>

